<?xml version="1.0" standalone="no"?>
<!DOCTYPE svg PUBLIC "-//W3C//DTD SVG 20010904//EN"
 "http://www.w3.org/TR/2001/REC-SVG-20010904/DTD/svg10.dtd">
<svg version="1.0" xmlns="http://www.w3.org/2000/svg"
 width="16.000000pt" height="16.000000pt" viewBox="0 0 16.000000 16.000000"
 preserveAspectRatio="xMidYMid meet">
<metadata>
Created by potrace 1.11, written by Peter Selinger 2001-2013
</metadata>
<g transform="translate(0.000000,16.000000) scale(0.001616,-0.001616)"
fill="#000000" stroke="none">
<path d="M1796 9872 c34 -22 274 -135 374 -176 36 -15 79 -33 95 -41 55 -24
388 -156 535 -211 80 -30 161 -61 180 -68 67 -27 146 -56 330 -121 102 -36
192 -69 200 -72 64 -25 953 -335 1070 -373 14 -4 117 -40 230 -80 113 -39 232
-80 265 -91 505 -171 704 -260 741 -332 14 -26 14 -31 -1 -48 -29 -31 -80 -41
-218 -42 -131 -1 -482 11 -515 18 -9 1 -64 6 -122 10 -58 4 -107 8 -110 10 -3
2 -47 6 -98 10 -52 3 -101 8 -110 10 -10 1 -45 6 -79 9 -35 3 -91 9 -125 12
-35 3 -70 7 -79 9 -8 2 -53 6 -100 10 -46 3 -100 8 -119 10 -19 3 -66 7 -105
10 -38 3 -88 8 -110 10 -165 17 -567 23 -758 11 -112 -6 -344 -32 -377 -41 -8
-2 -33 -6 -55 -10 -22 -3 -78 -15 -125 -26 -47 -11 -94 -22 -106 -25 -76 -15
-213 -72 -254 -106 -115 -95 -33 -228 260 -423 127 -84 438 -267 597 -351 49
-26 102 -54 118 -64 17 -9 84 -46 150 -80 66 -35 147 -77 180 -95 73 -39 184
-98 370 -196 77 -40 167 -88 200 -107 33 -18 175 -90 315 -158 636 -312 713
-354 813 -445 24 -22 91 -41 146 -41 40 0 50 5 76 34 17 19 37 37 46 40 25 10
59 -18 54 -45 -6 -29 -27 -43 -75 -51 -34 -5 -40 -10 -40 -31 0 -28 25 -47 92
-72 30 -11 70 -37 102 -68 59 -57 199 -121 240 -111 13 3 36 24 51 46 45 65
95 82 95 33 -1 -32 -23 -51 -92 -77 -38 -14 -48 -22 -48 -40 0 -30 28 -54 71
-62 19 -3 56 -17 82 -30 27 -12 55 -20 63 -17 13 5 14 -1 9 -30 -6 -28 -3 -39
14 -56 17 -17 25 -19 47 -11 22 9 30 6 55 -21 16 -17 29 -35 29 -41 0 -5 5 -6
10 -3 6 3 18 4 28 0 14 -4 19 -15 18 -47 -1 -39 1 -42 29 -48 44 -10 71 -29
94 -70 30 -53 51 -74 103 -99 54 -26 67 -39 74 -77 7 -40 10 -42 67 -59 94
-28 173 -85 117 -85 -12 0 -35 8 -51 17 -27 16 -30 16 -46 0 -17 -17 -17 -19
5 -37 12 -10 22 -23 22 -28 0 -6 16 -19 35 -31 33 -19 35 -23 32 -68 l-2 -47
43 -9 43 -8 -21 -33 c-11 -19 -20 -45 -20 -59 0 -26 4 -28 63 -41 15 -4 48
-19 73 -35 35 -21 42 -30 32 -38 -7 -6 -22 -9 -32 -7 -74 11 -91 9 -94 -13 -5
-36 16 -62 61 -74 93 -25 107 -31 107 -45 0 -12 -18 -20 -60 -25 -8 -1 -31 5
-50 14 -29 13 -38 14 -55 3 -11 -8 -20 -20 -21 -27 -1 -23 38 -59 63 -59 13 0
35 -12 49 -27 25 -27 25 -27 4 -35 -26 -9 -39 -44 -33 -85 4 -26 -1 -38 -25
-63 -38 -37 -46 -38 -62 -1 -22 53 -51 50 -95 -9 -42 -57 -30 -85 30 -68 48
13 55 10 55 -21 0 -37 4 -39 80 -49 34 -5 66 -15 71 -23 15 -24 -18 -22 -106
5 -46 14 -94 26 -108 26 -13 0 -30 6 -36 14 -26 31 -94 -11 -104 -62 -7 -34 6
-42 52 -31 43 10 54 1 45 -35 -7 -29 -44 -53 -90 -58 -28 -3 -29 -1 -28 35 2
47 -14 48 -83 4 -41 -26 -50 -37 -49 -59 2 -44 19 -53 71 -41 51 12 55 10 55
-28 0 -29 19 -41 72 -44 14 -1 32 -6 40 -12 27 -21 59 -33 124 -47 l68 -14 40
27 c23 15 49 30 59 34 18 7 22 24 9 43 -12 18 -47 33 -86 36 -26 1 -35 6 -31
16 3 7 5 16 5 18 0 9 49 3 86 -10 48 -17 71 -9 112 38 40 46 33 65 -33 90 -25
10 -45 21 -45 26 0 4 33 6 73 3 95 -5 102 1 100 78 -1 47 3 66 16 80 53 57 51
92 -7 119 -47 22 -39 36 21 39 40 1 60 -3 76 -17 l23 -18 -21 -34 c-25 -41
-27 -69 -6 -96 20 -27 19 -30 -14 -44 -30 -12 -61 -62 -61 -98 0 -25 35 -52
67 -52 14 0 23 -6 23 -15 0 -17 -18 -18 -72 -6 -50 12 -77 -4 -98 -59 -18 -46
-13 -70 16 -70 22 0 67 -20 60 -27 -3 -4 -40 -7 -82 -7 -76 -1 -76 -1 -110
-41 -19 -22 -32 -44 -31 -50 9 -26 69 -47 140 -48 128 0 129 0 160 44 34 49
34 66 2 81 -49 22 -31 34 66 47 4 1 19 17 33 36 26 33 26 36 10 60 -16 25 -16
26 23 63 38 35 65 103 48 120 -3 4 -29 7 -57 7 -64 0 -75 19 -12 22 54 1 68
13 83 66 8 32 7 44 -9 70 -17 27 -17 33 -5 47 7 8 16 27 20 41 5 22 0 33 -34
64 -37 35 -39 40 -25 59 32 46 7 116 -42 116 -10 0 -26 5 -34 10 -13 9 -12 13
6 28 47 38 33 91 -31 118 -47 19 -57 18 -91 -11 l-28 -24 -45 26 c-24 14 -58
27 -75 28 -16 1 -32 8 -34 15 -4 10 18 11 100 6 124 -8 128 -6 128 64 0 45 24
37 56 -17 15 -27 44 -73 65 -104 21 -32 46 -77 54 -100 9 -24 23 -57 32 -72
52 -98 79 -292 61 -442 -13 -104 -19 -128 -48 -200 -141 -353 -537 -725 -1148
-1077 -167 -97 -707 -370 -837 -425 -33 -14 -96 -42 -140 -63 -44 -21 -109
-50 -144 -65 -98 -41 -143 -72 -139 -98 3 -19 10 -22 58 -24 107 -5 121 -3
148 11 42 24 59 31 187 87 163 70 596 281 741 362 220 120 600 369 771 504
144 113 300 259 393 369 128 151 244 387 268 548 10 60 8 230 -2 276 -3 14 -8
39 -12 55 -12 62 -48 163 -87 240 -22 44 -50 101 -63 126 -12 25 -41 65 -63
87 -42 42 -48 56 -31 67 21 13 68 -25 85 -69 9 -24 39 -68 66 -98 38 -41 49
-60 49 -87 0 -26 9 -42 39 -71 51 -49 65 -75 51 -99 -16 -31 -12 -46 25 -87
33 -35 34 -39 20 -61 -20 -30 -19 -47 7 -93 l23 -39 -19 -55 c-23 -68 -17 -88
46 -139 50 -41 101 -64 138 -63 18 1 29 -7 40 -29 8 -16 31 -40 50 -52 85 -54
114 -77 102 -81 -7 -2 -32 8 -56 22 -24 14 -45 24 -47 22 -2 -2 -20 -7 -40
-10 -33 -5 -38 -3 -43 18 -9 35 -42 72 -99 110 -74 49 -99 51 -121 8 -12 -23
-12 -32 -1 -57 28 -65 116 -135 168 -135 33 0 39 -4 57 -40 16 -32 34 -47 98
-79 42 -21 100 -51 127 -65 67 -35 81 -33 102 11 27 55 43 54 31 -3 -12 -53
-4 -64 49 -64 63 0 82 68 34 120 -28 31 -29 31 -58 16 l-30 -15 -18 39 c-14
31 -24 40 -42 40 -39 0 -82 28 -83 53 0 5 4 5 10 2 17 -11 53 -16 118 -19 55
-2 66 -6 85 -29 27 -33 41 -25 56 29 14 52 7 70 -27 79 -92 22 -103 27 -112
51 -14 36 3 64 40 64 23 0 30 -5 30 -19 0 -18 18 -31 42 -31 11 0 7 115 -5
127 -4 3 -24 8 -44 10 -48 3 -87 33 -91 68 -6 47 16 55 48 16 19 -22 34 -32
45 -28 28 11 28 36 1 75 -14 21 -26 43 -26 50 0 18 -54 42 -84 36 -39 -7 -33
23 8 40 29 12 34 18 29 38 -9 35 -40 64 -99 92 -58 28 -61 31 -39 60 19 25 19
50 1 65 -8 7 -21 27 -30 46 -11 23 -21 32 -31 28 -41 -15 -98 40 -82 80 10 27
-42 94 -93 120 -19 10 -53 28 -74 41 -22 14 -47 23 -58 21 -26 -5 -22 16 8 40
l26 21 -26 25 c-14 14 -50 38 -80 53 -30 15 -62 36 -72 47 -9 10 -30 19 -45
19 -26 0 -27 2 -22 36 7 43 -9 60 -97 101 -30 14 -71 40 -90 58 -19 17 -91 72
-160 121 -69 48 -168 121 -221 161 -53 40 -173 118 -265 174 -93 56 -171 105
-174 109 -17 26 -400 236 -473 260 -21 7 -69 35 -105 63 -37 28 -94 64 -127
81 -33 16 -114 59 -180 96 -129 72 -189 104 -415 226 -234 125 -756 383 -1008
499 -481 219 -790 377 -1027 525 -262 163 -304 220 -229 309 72 86 345 196
539 217 33 3 63 8 66 10 12 7 271 18 404 17 126 -1 386 -10 472 -18 43 -3 200
-16 263 -20 40 -3 179 -15 230 -20 19 -2 69 -6 110 -10 41 -3 89 -7 105 -9 27
-4 72 -8 230 -22 28 -2 73 -6 100 -9 156 -16 390 -28 570 -28 227 0 293 12
315 54 11 19 6 27 -44 75 -87 82 -424 242 -763 363 -105 37 -862 306 -1078
382 -16 6 -39 15 -50 19 -11 4 -33 13 -50 18 -16 6 -95 34 -175 62 -80 29
-181 65 -225 80 -44 16 -208 74 -365 130 -316 112 -402 143 -535 190 -49 17
-112 40 -140 50 -27 10 -216 78 -420 150 -394 140 -459 163 -655 234 -172 62
-169 60 -134 38z m2338 -2878 c23 -9 20 -44 -3 -44 -23 0 -35 15 -27 35 6 17
8 17 30 9z m186 -113 c0 -23 -28 -48 -39 -35 -13 13 6 54 24 54 8 0 15 -8 15
-19z m390 -202 c0 -16 -31 -38 -46 -32 -16 6 -10 43 10 55 11 7 36 -8 36 -23z
m188 -81 c20 -20 14 -48 -14 -58 -34 -13 -34 -13 -34 14 0 51 21 71 48 44z
m206 -104 c33 -13 3 -74 -36 -74 -22 0 -24 27 -2 58 17 25 16 24 38 16z m224
-117 c32 -21 -4 -77 -50 -77 -23 0 -28 4 -28 25 0 45 43 73 78 52z m470 -263
c36 -25 28 -52 -20 -74 -83 -38 -101 -17 -47 51 35 44 36 45 67 23z m485 -298
c10 -24 -3 -52 -31 -67 -34 -19 -69 -17 -90 5 -15 15 -15 18 -2 26 8 5 29 18
45 29 36 23 71 26 78 7z m230 -157 c5 -9 7 -28 3 -42 -6 -25 -10 -27 -66 -27
-55 0 -59 2 -52 20 9 24 72 72 91 68 8 -2 18 -10 24 -19z m237 -180 c8 -14 4
-22 -16 -38 -15 -12 -34 -21 -43 -22 -84 -5 -102 -4 -112 2 -16 10 120 87 143
81 10 -2 23 -13 28 -23z m188 -166 c-6 -52 -101 -89 -147 -57 -28 20 -27 32 2
27 14 -3 35 6 58 24 20 16 48 29 63 31 24 2 27 -1 24 -25z m185 -163 c15 -56
-126 -99 -147 -45 -4 11 2 15 19 15 14 0 36 14 56 34 35 38 61 36 72 -4z m245
-107 c5 -18 -28 -29 -38 -12 -5 7 -6 17 -3 22 7 12 35 5 41 -10z m-117 -26
c23 -18 51 -64 42 -70 -4 -2 -22 -5 -40 -5 -18 0 -48 -8 -68 -18 -33 -16 -38
-16 -81 1 -44 17 -60 33 -52 54 2 6 28 1 61 -10 65 -22 87 -15 87 26 0 36 21
45 51 22z m399 -62 c0 -16 -22 -35 -41 -35 -18 0 -29 17 -22 36 5 14 63 13 63
-1z m153 -194 c4 -1 3 -10 -3 -21 -19 -35 -70 -21 -56 15 3 9 14 13 28 11 13
-3 27 -5 31 -5z m-510 -125 c28 -19 31 -25 21 -50 -7 -17 -44 -22 -44 -6 0 20
-54 44 -103 46 -27 2 -54 7 -60 13 -32 32 137 29 186 -3z m595 -32 c30 -9 28
-32 -5 -45 -22 -8 -30 -7 -40 6 -13 19 -7 45 11 45 6 0 21 -3 34 -6z m-565
-125 c36 -44 4 -79 -37 -40 -13 12 -42 23 -72 27 -27 4 -55 12 -63 18 -11 9
-5 12 30 16 73 9 122 1 142 -21z m602 -29 c35 -21 64 -70 42 -70 -21 0 -56 30
-72 61 -18 34 -13 36 30 9z m303 -118 c17 -22 15 -31 -5 -28 -10 2 -36 7 -58
11 l-40 7 24 19 c26 21 58 18 79 -9z m-249 -43 c11 -17 30 -36 43 -43 27 -14
36 -51 13 -60 -10 -4 -34 12 -71 48 -51 49 -54 55 -39 70 23 23 33 20 54 -15z
m49 -205 c26 -29 29 -66 6 -85 -13 -10 -17 -10 -25 2 -5 8 -9 17 -9 20 0 3
-13 23 -30 44 -16 20 -27 42 -24 47 10 16 57 -1 82 -28z m196 -104 c31 -11 34
-26 7 -33 -22 -5 -63 12 -69 31 -5 15 26 16 62 2z m-1350 -66 c4 -11 -4 -14
-32 -14 -51 0 -85 33 -44 42 24 6 69 -11 76 -28z"/>
<path d="M6845 4375 c-16 -37 -6 -79 21 -89 24 -9 55 27 56 65 1 46 -7 59 -38
59 -19 0 -28 -8 -39 -35z"/>
<path d="M3569 3846 c-16 -33 -4 -73 31 -108 23 -22 35 -28 52 -22 29 8 28 7
33 33 5 29 -14 82 -38 104 -29 25 -65 22 -78 -7z"/>
<path d="M6380 3810 c-46 -28 -64 -45 -62 -58 6 -30 22 -42 45 -33 32 12 63
-3 75 -38 6 -17 18 -31 27 -31 9 0 58 -18 110 -40 56 -24 119 -43 154 -47 58
-6 62 -5 111 33 54 41 63 67 29 84 -30 17 -130 51 -161 55 -16 3 -51 16 -78
30 -46 23 -55 25 -85 14 -40 -15 -45 -12 -54 33 -9 46 -34 46 -111 -2z"/>
<path d="M7707 3818 c-8 -13 -18 -40 -21 -60 -6 -35 -3 -42 41 -89 56 -60 89
-79 138 -79 29 0 35 -4 35 -21 0 -34 32 -78 64 -89 17 -6 68 -33 113 -60 46
-28 101 -54 122 -59 l39 -8 16 49 c20 61 20 72 2 106 -10 20 -33 34 -88 54
-40 15 -86 39 -102 52 -33 30 -89 50 -117 43 -10 -3 -19 -1 -19 3 0 17 -166
175 -187 178 -14 2 -27 -5 -36 -20z"/>
<path d="M6163 3657 c-44 -28 -63 -47 -63 -61 0 -36 16 -49 55 -48 26 1 42 -5
58 -22 30 -32 85 -58 211 -101 111 -38 133 -39 209 -9 12 4 20 -4 31 -29 17
-42 43 -52 82 -32 24 12 31 12 42 1 18 -18 7 -53 -19 -61 -10 -4 -44 3 -74 14
-69 26 -120 27 -176 2 -49 -22 -59 -20 -59 13 0 30 -26 52 -70 59 -19 3 -73
23 -121 45 -99 47 -144 57 -182 43 -27 -10 -29 -9 -47 34 -16 38 -24 45 -46
45 -15 0 -35 -7 -44 -15 -10 -9 -42 -28 -71 -43 -58 -29 -70 -50 -43 -76 11
-12 28 -15 56 -12 36 4 40 2 55 -29 9 -19 28 -38 42 -43 14 -5 76 -29 136 -53
112 -44 161 -52 223 -38 31 7 38 4 62 -22 49 -54 239 -82 321 -47 56 24 106
74 113 113 4 19 10 36 14 36 4 1 22 3 40 5 19 2 57 16 85 31 29 16 54 29 56
30 6 3 5 48 -2 76 -6 24 -5 27 15 27 47 0 94 21 136 60 23 22 42 46 42 54 0
29 -39 43 -123 46 -139 5 -143 5 -194 -32 -38 -27 -49 -41 -51 -66 -3 -27 0
-32 20 -33 13 -1 27 -1 32 0 22 4 65 -12 70 -26 6 -13 -3 -14 -71 -8 -99 10
-128 8 -164 -10 -27 -15 -29 -14 -51 15 -24 33 -73 58 -174 90 -35 10 -75 27
-88 36 -14 8 -52 18 -86 21 -49 5 -60 9 -60 24 0 19 -28 40 -52 38 -7 0 -41
-19 -75 -42z m-144 -203 c5 -13 -42 -35 -53 -24 -15 15 0 36 25 35 13 -1 26
-6 28 -11z"/>
<path d="M7607 3621 c-46 -69 -43 -80 31 -154 38 -37 83 -71 105 -78 25 -9 40
-21 44 -37 6 -24 73 -74 173 -129 155 -86 161 -87 191 -17 10 24 23 44 28 44
16 0 18 -24 4 -57 -21 -53 -17 -82 14 -89 34 -9 53 4 82 56 37 65 28 122 -19
119 -41 -3 -61 4 -102 35 -63 48 -264 156 -291 156 -7 0 -30 21 -52 48 -22 26
-44 49 -49 51 -6 2 -31 24 -57 48 -25 23 -53 43 -61 43 -9 0 -27 -18 -41 -39z
m216 -183 c5 -16 -10 -48 -23 -48 -6 0 -10 14 -10 30 0 30 24 43 33 18z"/>
<path d="M7468 3444 c-44 -41 -47 -64 -15 -116 42 -69 105 -128 138 -128 16 0
29 4 29 8 0 4 16 25 35 46 19 21 35 45 35 53 0 24 -29 71 -47 78 -10 3 -33 26
-52 50 -42 57 -71 59 -123 9z"/>
<path d="M8309 3464 c-17 -21 -29 -125 -16 -141 5 -7 22 -13 37 -13 33 0 49
31 57 106 5 47 4 51 -18 57 -36 10 -45 8 -60 -9z"/>
<path d="M5647 3371 c-25 -17 -62 -33 -82 -37 -71 -13 -65 -61 13 -90 26 -10
61 -33 78 -51 18 -18 39 -33 48 -33 9 0 48 -16 87 -35 134 -68 237 -79 301
-34 36 26 47 17 26 -19 -9 -15 -14 -33 -10 -39 12 -19 87 -38 192 -48 118 -13
140 -12 152 2 6 8 38 28 70 44 64 32 90 69 57 81 -10 4 -51 10 -91 14 -40 3
-89 12 -109 19 -39 13 -61 13 -146 1 l-53 -8 0 31 c0 17 -2 31 -3 31 -18 0
-184 68 -232 95 -43 24 -70 33 -86 29 -60 -15 -72 -10 -97 34 -29 51 -50 54
-115 13z m103 -76 c-13 -16 -90 -21 -90 -7 0 17 14 22 58 22 38 0 43 -2 32
-15z"/>
<path d="M7321 3287 c-5 -13 -24 -36 -41 -51 -42 -35 -41 -63 4 -128 58 -84
61 -87 98 -103 23 -9 42 -28 55 -52 26 -51 270 -218 323 -221 24 -2 43 -12 63
-33 17 -19 33 -29 43 -25 9 3 20 6 25 6 4 0 15 13 24 30 9 16 31 36 49 44 43
18 55 59 28 95 -17 24 -28 27 -73 23 -8 -1 -24 -21 -36 -45 -23 -47 -66 -78
-85 -59 -15 15 -3 41 24 51 35 13 61 47 54 69 -4 10 -38 38 -77 63 -39 24 -92
59 -117 77 -26 17 -67 42 -92 55 -25 12 -49 28 -53 35 -4 6 -40 53 -80 102
-59 75 -76 90 -99 90 -21 0 -31 -7 -37 -23z m189 -214 c0 -9 -12 -30 -27 -45
-50 -52 -74 -25 -27 31 28 34 54 41 54 14z"/>
<path d="M3760 3279 c0 -31 12 -49 32 -49 16 0 19 6 16 33 -2 25 -8 32 -25 33
-16 1 -23 -4 -23 -17z"/>
<path d="M7723 3280 c-12 -5 -24 -17 -27 -28 -4 -11 -20 -34 -36 -51 -17 -17
-30 -35 -30 -41 0 -16 48 -54 170 -134 134 -89 163 -95 186 -41 12 28 56 65
79 65 12 0 3 -29 -20 -60 -39 -52 -29 -100 20 -100 30 1 49 19 83 83 39 73 34
90 -22 82 -40 -6 -44 -5 -66 28 -20 30 -76 68 -175 122 -11 6 -44 28 -74 48
-58 40 -56 40 -88 27z"/>
<path d="M5319 3216 c-30 -23 -59 -35 -92 -40 -58 -7 -67 -12 -67 -35 0 -23
28 -48 71 -62 19 -6 43 -22 54 -34 39 -45 312 -165 375 -165 12 0 41 13 64 29
47 32 96 49 96 33 0 -5 -13 -15 -30 -22 -47 -19 -41 -53 14 -79 59 -27 83 -32
206 -38 103 -5 108 -4 175 26 97 44 100 46 103 69 2 13 -5 25 -20 33 -37 20
-207 51 -288 52 -68 2 -80 5 -120 34 -24 18 -64 40 -89 49 -25 9 -89 36 -141
60 -52 24 -116 49 -142 56 -27 7 -48 18 -48 25 0 15 -39 43 -61 43 -8 0 -36
-15 -60 -34z m98 -63 c5 -13 -40 -63 -56 -63 -11 0 -41 28 -41 38 0 12 54 41
74 39 11 -1 21 -7 23 -14z"/>
<path d="M7103 3095 c-15 -19 -39 -39 -53 -45 -47 -19 -52 -42 -24 -97 44 -84
85 -142 102 -147 9 -2 30 -7 46 -11 25 -5 28 -9 22 -38 -5 -31 -2 -35 100
-112 126 -96 159 -115 201 -115 27 0 35 5 46 33 11 25 25 36 62 50 27 9 52 14
57 9 16 -16 -4 -41 -48 -58 -24 -9 -48 -22 -54 -28 -16 -20 4 -70 34 -85 27
-13 30 -11 75 31 25 25 63 55 84 67 21 13 37 30 37 41 0 25 -47 60 -81 60 -20
0 -33 8 -45 28 -15 25 -98 84 -273 194 -53 34 -82 60 -100 92 -103 175 -135
198 -188 131z m175 -232 c-4 -33 -64 -64 -74 -38 -4 8 -3 26 0 40 5 21 12 25
42 25 32 0 35 -2 32 -27z"/>
<path d="M4985 3078 c-10 -6 -30 -22 -43 -35 -12 -13 -28 -23 -35 -24 -100 -5
-137 -23 -137 -69 0 -23 5 -31 23 -35 30 -8 59 -13 75 -14 6 -1 12 -7 12 -14
0 -8 8 -21 18 -30 35 -32 298 -152 354 -162 22 -4 43 2 80 25 28 17 52 29 55
27 2 -3 0 -21 -5 -40 -5 -19 -7 -39 -3 -44 8 -13 191 -52 267 -57 63 -5 135
14 169 44 11 9 38 20 60 23 36 6 75 35 75 57 0 14 -56 32 -129 40 -42 5 -96
16 -120 24 -63 23 -120 20 -161 -7 -69 -46 -89 -41 -50 13 26 37 18 54 -33 70
-23 6 -100 41 -172 76 -89 44 -137 62 -152 58 -22 -6 -41 8 -85 64 -20 25 -34
27 -63 10z m63 -116 c3 -20 -1 -22 -37 -22 -43 0 -50 9 -27 33 22 21 60 15 64
-11z"/>
<path d="M4565 2923 c-16 -8 -42 -29 -57 -46 -26 -30 -29 -31 -68 -20 -37 9
-45 8 -76 -13 -19 -13 -39 -24 -44 -24 -14 0 -18 -24 -7 -45 16 -31 39 -44 75
-45 17 0 32 -4 32 -10 0 -12 70 -80 83 -80 5 0 37 -17 71 -39 74 -46 199 -91
256 -91 36 0 48 6 76 35 34 36 43 39 127 36 34 -1 47 -5 47 -16 0 -12 -14 -15
-63 -15 -76 0 -100 -14 -95 -55 3 -30 18 -37 94 -49 17 -3 37 -8 45 -10 28
-11 76 -17 155 -23 76 -5 86 -3 160 30 43 19 97 40 119 47 22 7 43 18 47 23
13 21 -12 45 -54 52 -24 3 -56 10 -73 15 -16 5 -41 11 -55 14 -14 2 -47 10
-75 16 -65 15 -82 18 -127 23 -21 2 -55 16 -75 30 -21 14 -85 48 -143 75 -123
57 -230 121 -283 168 -42 38 -50 40 -92 17z m33 -119 c29 -20 29 -44 0 -43
-58 3 -115 29 -104 48 10 16 78 13 104 -5z"/>
<path d="M6869 2923 c-8 -9 -37 -31 -64 -49 -75 -48 -81 -57 -67 -110 7 -24
23 -62 37 -84 14 -22 25 -44 25 -49 0 -16 30 -34 58 -35 23 -1 27 -7 35 -42 8
-43 19 -56 133 -150 85 -71 131 -97 156 -91 30 8 53 -7 79 -53 13 -22 25 -40
28 -41 3 0 15 -2 25 -4 13 -2 31 9 53 33 18 20 33 39 33 42 0 3 17 12 38 19
71 26 91 62 52 101 -16 16 -24 18 -47 9 -38 -14 -49 -6 -57 40 -5 35 -11 42
-49 59 -23 11 -92 60 -153 110 -61 49 -116 91 -121 93 -11 5 -93 143 -93 157
0 5 -9 21 -21 36 -23 30 -60 34 -80 9z m136 -260 c10 -27 -23 -65 -53 -61 -22
3 -27 9 -30 40 -3 32 0 37 20 40 33 5 56 -2 63 -19z m349 -249 c19 -7 21 -49
4 -61 -15 -9 -79 -33 -90 -33 -20 0 -5 44 24 71 35 31 38 32 62 23z"/>
<path d="M3435 2912 c-63 -10 -88 -76 -55 -142 35 -69 106 -77 156 -17 21 25
25 38 20 65 -9 58 -68 103 -121 94z"/>
<path d="M2156 2863 c-15 -15 -3 -49 29 -84 38 -43 45 -69 17 -69 -10 0 -56
16 -102 35 -47 19 -90 35 -96 35 -6 0 -31 -18 -56 -39 -29 -26 -56 -41 -79
-43 -31 -3 -34 -6 -37 -38 -1 -22 5 -47 18 -68 21 -34 74 -72 100 -72 24 0 85
-55 116 -105 16 -24 40 -49 54 -55 14 -5 68 -12 120 -14 54 -2 110 -11 130
-19 37 -16 79 -24 170 -31 137 -12 210 -45 241 -111 11 -23 30 -47 42 -53 90
-43 126 -56 163 -60 38 -3 47 0 75 27 17 17 40 31 52 31 32 0 112 -23 188 -54
36 -14 73 -26 82 -26 20 0 51 45 42 60 -4 6 -52 40 -108 77 -56 36 -105 70
-109 76 -11 18 14 56 50 73 28 13 52 15 123 10 172 -12 319 -62 338 -116 7
-21 22 -33 65 -49 74 -27 230 -71 255 -71 19 0 51 24 51 38 0 13 -219 232
-232 233 -7 1 -44 2 -83 3 -49 2 -83 9 -112 24 -23 12 -51 22 -62 22 -38 0
-51 11 -51 45 0 26 7 37 40 60 22 15 40 32 40 36 0 5 9 18 20 29 16 16 25 18
45 10 15 -6 42 -10 61 -10 50 0 69 -13 159 -106 l80 -82 75 19 c100 25 134 24
232 -8 107 -34 103 -33 174 -34 65 -1 116 18 130 48 19 42 12 51 -55 80 -36
15 -79 35 -96 45 -16 9 -61 34 -100 54 -38 20 -74 39 -80 44 -5 4 -25 11 -43
15 -24 5 -37 16 -48 39 -12 23 -32 39 -75 59 -32 15 -63 27 -68 27 -5 0 -7
-13 -6 -30 6 -67 -86 -86 -179 -36 -27 14 -61 26 -76 26 -28 0 -84 -36 -76
-49 11 -18 -28 -51 -77 -67 -65 -20 -80 -31 -98 -69 -12 -25 -20 -30 -48 -28
-18 1 -54 16 -80 32 -41 27 -46 34 -46 68 0 32 -4 39 -29 48 -26 9 -31 7 -61
-28 -20 -24 -41 -37 -56 -37 -13 0 -69 16 -124 36 -111 40 -144 45 -195 31
-38 -10 -80 -43 -80 -63 0 -31 -42 -52 -114 -58 -143 -12 -137 -13 -206 35
-36 25 -78 49 -95 55 -19 6 -41 27 -62 59 -53 83 -77 113 -98 124 -25 13 -72
21 -79 14z m704 -532 c16 -31 12 -41 -15 -41 -18 0 -28 7 -35 26 -13 34 -13
34 15 34 14 0 29 -8 35 -19z"/>
<path d="M6550 2709 c-33 -36 -45 -43 -75 -42 -29 1 -38 -4 -50 -27 -33 -63
-7 -166 56 -227 22 -21 45 -55 51 -76 8 -26 39 -64 108 -131 109 -106 162
-139 199 -124 30 11 48 -4 55 -45 12 -70 61 -76 132 -17 27 23 69 50 93 61 63
28 85 62 61 99 -8 12 -29 16 -113 19 -15 1 -18 8 -16 36 3 31 -1 37 -41 64
-25 16 -79 59 -120 96 -41 37 -94 78 -117 92 -24 14 -43 32 -43 41 0 10 -16
51 -36 92 -20 41 -42 86 -48 100 -19 41 -52 37 -96 -11z m125 -278 c-28 -54
-95 -60 -95 -8 0 35 12 45 55 49 53 4 60 -3 40 -41z m363 -268 c13 -25 -3 -61
-30 -68 -33 -8 -82 8 -86 28 -2 10 11 23 35 36 47 25 70 26 81 4z"/>
<path d="M6246 2552 c-11 -2 -35 -19 -53 -38 -18 -19 -42 -34 -54 -34 -31 0
-95 -39 -107 -66 -15 -33 -6 -137 17 -188 15 -35 26 -45 51 -51 30 -7 31 -8
25 -45 -7 -42 0 -53 119 -178 89 -93 124 -117 176 -117 45 0 45 0 50 -40 3
-22 9 -46 14 -54 14 -21 71 -6 126 34 27 20 79 48 117 64 93 38 116 85 54 114
-41 20 -76 9 -124 -37 -40 -40 -69 -55 -139 -70 -32 -7 -33 -5 -13 34 11 21
25 31 53 36 80 15 133 53 132 94 -1 8 -33 40 -73 70 -71 55 -187 166 -187 180
0 4 -13 13 -29 20 -26 10 -34 25 -65 120 -20 60 -36 116 -36 124 0 19 -29 34
-54 28z m58 -317 c-33 -43 -73 -66 -102 -58 -28 7 -28 38 -2 61 23 19 48 27
98 30 l34 3 -28 -36z"/>
<path d="M4700 2443 c-26 -7 -64 -27 -95 -48 -16 -12 -43 -22 -60 -23 -44 -4
-75 -22 -82 -50 -7 -29 6 -42 72 -69 66 -28 87 -29 168 -14 37 8 91 11 120 8
35 -3 61 0 81 10 29 15 45 19 108 27 48 6 74 21 81 45 9 36 -14 49 -102 57
-103 10 -164 22 -236 47 -22 8 -47 12 -55 10z"/>
<path d="M5804 2336 c-12 -8 -27 -29 -34 -46 -10 -24 -19 -30 -44 -31 -17 -1
-34 -1 -39 0 -4 1 -23 -5 -42 -13 -58 -25 -84 -115 -62 -216 13 -56 14 -57 85
-76 9 -3 7 -13 -7 -40 -19 -34 -19 -39 -4 -68 21 -41 109 -148 177 -215 53
-53 55 -54 103 -49 27 3 61 13 77 23 26 17 27 22 21 62 -6 42 -5 44 13 34 42
-22 90 -23 139 -1 79 35 78 53 -10 137 -34 32 -89 89 -122 127 -33 37 -74 74
-91 81 -30 12 -31 15 -42 108 -16 128 -39 191 -72 195 -14 1 -35 -4 -46 -12z
m23 -284 c19 -12 23 -58 6 -82 -19 -27 -76 -25 -81 3 -6 32 8 68 31 77 28 11
30 11 44 2z"/>
<path d="M4475 2168 c-11 -6 -23 -16 -26 -21 -11 -16 3 -48 27 -63 40 -27 87
15 75 66 -8 28 -43 37 -76 18z"/>
<path d="M5374 2122 c-6 -4 -19 -21 -27 -39 -21 -40 -112 -93 -164 -95 -52 -1
-91 -26 -114 -70 -37 -72 -16 -174 43 -204 l29 -15 -23 -32 c-22 -30 -25 -56
-9 -67 4 -3 35 -45 68 -95 86 -128 148 -195 182 -195 38 0 135 60 139 86 2 13
-13 40 -38 70 -41 50 -48 64 -30 64 13 0 47 -33 76 -74 17 -24 29 -29 68 -31
26 -1 48 -4 50 -6 2 -2 7 -22 13 -44 12 -54 43 -71 100 -56 51 14 103 56 103
83 0 30 -19 59 -38 57 -49 -4 -61 1 -72 37 -7 21 -46 73 -89 119 -42 45 -92
110 -111 143 -22 38 -43 63 -57 67 -20 5 -23 12 -23 50 0 24 -7 65 -16 91 -11
34 -13 57 -7 83 13 53 6 81 -20 81 -12 0 -27 -4 -33 -8z m-14 -318 c0 -22 -40
-66 -68 -75 -38 -12 -82 -5 -82 14 0 26 31 56 63 60 56 7 87 7 87 1z"/>
<path d="M4584 2024 c-77 -38 -76 -144 1 -130 64 12 131 41 167 74 l40 36 -34
17 c-41 23 -132 24 -174 3z"/>
<path d="M1747 1983 c-13 -12 -6 -58 11 -79 38 -45 74 -57 118 -40 31 12 2 81
-46 110 -29 16 -71 21 -83 9z"/>
<path d="M2918 1965 c-4 -20 -1 -26 19 -31 13 -4 34 -2 45 3 l21 9 -23 22
c-32 29 -56 28 -62 -3z"/>
<path d="M2635 1923 c-18 -18 -14 -65 8 -91 17 -21 73 -43 92 -36 10 4 23 -3
36 -20 20 -25 99 -56 144 -56 29 0 65 36 65 66 0 18 -12 32 -47 55 -42 26 -55
30 -98 26 -42 -4 -55 -1 -83 20 -17 13 -47 30 -66 38 -31 13 -37 13 -51 -2z"/>
<path d="M4788 1882 c-44 -28 -60 -46 -73 -79 -20 -51 -22 -52 -75 -58 -36 -4
-52 -15 -126 -89 -62 -62 -84 -91 -80 -103 3 -10 26 -31 51 -48 43 -29 45 -31
45 -83 0 -77 11 -93 63 -88 45 4 66 -3 110 -40 22 -18 41 -24 80 -24 48 0 54
-3 96 -48 90 -95 111 -99 207 -35 69 46 70 64 3 140 -65 74 -104 131 -128 185
-10 24 -33 53 -50 66 -26 19 -31 29 -27 50 8 39 19 191 18 236 -1 67 -31 71
-114 18z m32 -298 c0 -1 -5 -15 -10 -31 -8 -23 -7 -40 3 -71 14 -39 13 -42 -5
-48 -55 -17 -188 7 -188 34 0 9 14 39 32 68 l31 52 69 -1 c37 -1 68 -2 68 -3z"/>
<path d="M3152 1829 c4 -11 190 -89 212 -89 17 0 -34 32 -97 62 -68 33 -121
45 -115 27z"/>
<path d="M3535 1810 c-11 -17 15 -50 40 -50 19 0 23 4 20 22 -7 32 -46 51 -60
28z"/>
<path d="M3706 1714 c-13 -35 -7 -44 34 -44 49 0 54 22 10 45 -36 19 -36 19
-44 -1z"/>
<path d="M6250 1709 c-14 -5 -40 -29 -58 -53 -29 -39 -37 -44 -64 -39 -31 5
-118 -26 -149 -53 -17 -15 -15 -58 4 -81 26 -34 138 10 191 74 24 29 34 34 58
29 19 -4 47 3 83 19 62 27 69 45 34 89 -22 28 -53 32 -99 15z"/>
<path d="M3417 1663 c-16 -15 -6 -73 17 -99 17 -21 33 -28 64 -30 30 -1 47 -9
64 -27 33 -37 124 -59 167 -41 17 7 32 17 32 21 8 45 4 56 -25 77 -43 32 -87
45 -133 39 -31 -4 -45 0 -68 19 -52 44 -100 60 -118 41z"/>
<path d="M2514 1565 c-8 -20 4 -35 27 -35 21 0 25 20 7 38 -16 16 -27 15 -34
-3z"/>
<path d="M2345 1540 c-9 -15 4 -50 21 -51 8 -1 20 -2 26 -3 7 -1 13 13 14 32
1 29 -2 32 -27 32 -15 0 -31 -5 -34 -10z"/>
<path d="M1677 1514 c-9 -9 15 -56 42 -82 28 -28 47 -36 165 -67 82 -22 93
-23 113 -9 48 31 15 85 -80 129 -56 26 -87 31 -103 15 -18 -18 -58 -17 -89 1
-33 21 -39 22 -48 13z"/>
<path d="M2654 1477 c-34 -29 -26 -61 18 -76 26 -9 35 -8 50 5 24 23 24 70 -1
84 -28 14 -37 13 -67 -13z"/>
<path d="M2770 1455 c0 -30 73 -48 83 -21 8 21 -13 36 -50 36 -22 0 -33 -5
-33 -15z"/>
<path d="M5510 1342 c-47 -13 -99 -44 -105 -62 -9 -28 18 -68 51 -76 39 -10
161 51 167 82 6 36 -15 57 -59 59 -21 1 -46 0 -54 -3z"/>
<path d="M3300 1297 c0 -30 11 -40 35 -31 20 8 15 23 -13 42 -21 14 -22 13
-22 -11z"/>
<path d="M3143 1283 c-7 -2 -13 -15 -13 -28 0 -22 17 -35 46 -35 20 0 18 56
-2 64 -9 3 -16 6 -17 5 -1 0 -8 -3 -14 -6z"/>
<path d="M2358 1254 c-25 -16 -35 -29 -31 -39 3 -9 8 -13 11 -10 3 3 15 -1 27
-9 52 -34 95 -16 95 39 0 52 -41 59 -102 19z"/>
<path d="M2507 1252 c-27 -6 -16 -34 16 -43 37 -10 56 -2 50 21 -5 19 -34 29
-66 22z"/>
<path d="M5109 1163 c-66 -34 -74 -41 -74 -67 0 -20 9 -35 28 -50 l27 -20 90
44 c87 44 89 46 77 69 -7 14 -26 33 -43 43 l-31 18 -74 -37z"/>
<path d="M2741 1149 c-24 -22 -22 -49 7 -81 32 -38 102 -10 102 40 0 23 -43
62 -69 62 -10 0 -27 -9 -40 -21z"/>
<path d="M4060 1151 c-14 -27 -13 -77 3 -88 6 -5 30 -15 52 -22 22 -8 65 -31
95 -51 30 -20 66 -41 79 -45 42 -13 137 -14 162 -1 80 40 -54 159 -211 186
-35 7 -76 18 -92 26 -38 20 -75 18 -88 -5z"/>
<path d="M4795 1128 c-24 -19 -26 -26 -21 -61 5 -28 2 -47 -9 -64 -15 -22 -15
-26 0 -50 17 -25 19 -25 96 -19 87 8 91 5 98 -66 1 -4 12 -15 25 -23 22 -15
27 -15 54 -1 27 14 62 68 62 95 0 6 -19 23 -42 38 -24 16 -51 38 -61 50 -19
23 -131 105 -159 115 -10 4 -28 -2 -43 -14z"/>
<path d="M2049 1018 c-13 -23 -12 -25 14 -30 37 -7 66 8 60 30 -6 25 -61 25
-74 0z"/>
<path d="M2455 926 c-33 -50 27 -114 80 -86 37 20 43 56 14 86 -30 32 -73 32
-94 0z"/>
<path d="M4773 888 c-29 -36 -9 -92 35 -103 29 -7 41 2 47 35 10 54 -52 105
-82 68z"/>
<path d="M1991 819 c-19 -55 -14 -88 14 -99 105 -40 136 -3 70 84 -42 55 -68
59 -84 15z"/>
<path d="M4577 746 c-27 -21 -30 -59 -6 -90 25 -31 61 -34 89 -6 26 26 25 51
-1 84 -22 28 -54 33 -82 12z"/>
<path d="M1804 687 c-24 -21 -26 -27 -17 -53 12 -37 51 -59 86 -50 20 5 29 16
38 46 11 35 10 42 -6 60 -24 27 -68 25 -101 -3z"/>
<path d="M2417 606 c-8 -19 38 -72 69 -80 31 -9 58 16 51 46 -7 28 -23 37 -78
44 -27 4 -38 1 -42 -10z"/>
<path d="M2701 371 c15 -43 42 -63 81 -59 29 3 33 6 33 33 0 35 -31 55 -87 55
-36 0 -37 0 -27 -29z"/>
<path d="M1580 370 c0 -11 12 -30 26 -43 15 -12 37 -33 49 -45 25 -27 62 -27
79 0 16 26 -76 107 -121 108 -26 0 -33 -4 -33 -20z"/>
<path d="M1440 349 c0 -27 131 -122 146 -106 10 9 -116 117 -138 117 -4 0 -8
-5 -8 -11z"/>
<path d="M2305 130 c-71 -27 -47 -111 35 -123 35 -6 110 22 110 39 0 28 -31
74 -53 79 -49 11 -73 12 -92 5z"/>
</g>
</svg>
