<?xml version="1.0" encoding="UTF-8"?>
<svg width="805px" height="292px" viewBox="0 0 805 292" version="1.1" xmlns="http://www.w3.org/2000/svg" xmlns:xlink="http://www.w3.org/1999/xlink">
    <!-- Generator: Sketch 3.8.1 (29687) - http://www.bohemiancoding.com/sketch -->
    <title>Group 3 Copy</title>
    <desc>Created with Sketch.</desc>
    <defs></defs>
    <g id="Page-1" stroke="none" stroke-width="1" fill="none" fill-rule="evenodd">
        <g id="Artboard-1" transform="translate(-20.000000, -61.000000)">
            <g id="Group-3-Copy" transform="translate(-145.000000, -279.000000)">
                <g>
                    <g id="bartes-svg-copy-2">
                        <g id="Layer_1">
                            <path d="M969.25,344.19 L949.62,412.73 L887.41,412.73 C877.65,412.73 877.66,412.73 874.89,422.15 C855.403333,488.276667 835.91,554.413333 816.41,620.56 C815.7,622.97 814.82,625.33 814.49,626.32 L728.43,575.26 L776.17,413.14 L744.91,413.14 C746.873404,429.86981 745.2855,446.825634 740.25,462.9 L640.43,462.9 C641.43,455.96 642.51,449.35 643.18,442.69 C643.485337,439.113636 643.431737,435.515682 643.02,431.95 C641.86,420.52 635.37,413.51 624.02,411.35 C602.4,407.24 584.41,413.9 569.95,430.18 C555.01,447 546.95,467.46 540.64,488.56 C536.73,501.62 534.28,515.11 530.9,529.56 C472.9,525.2 413.75,526.72 354.84,533.38 C352.47,517.52 347.62,513.24 331.84,512.92 C323.39,512.74 314.93,513.03 306.49,512.78 C302.87,512.67 301.27,513.91 300.35,517.41 C298.64885,524.156521 296.545082,530.795077 294.05,537.29 C293.18,539.5 290.53,542.14 288.33,542.52 C254.63,548.31 220.87,553.75 186.33,559.4 C186.7,557.51 186.89,555.77 187.33,554.11 C207.523333,485.99 227.706667,417.866667 247.88,349.74 C249.09,345.66 250.72,344.1 255.23,344.13 C295.79,344.34 336.37,343.66 376.92,344.52 C394.843603,344.903684 412.694582,346.925433 430.25,350.56 C455.6,355.83 476.75,367.62 483.44,396.7 C513.23,361.85 551.7,345.94 595.44,342.02 C638.26,338.18 680.44,339.9 718.55,366.15 C720.22,360.58 722.11,355.35 723.29,349.96 C724.29,345.45 726.29,343.96 731.04,344.05 C756.6,344.31 782.17,344.17 807.73,344.17 L969.25,344.17 L969.25,344.19 Z M319.54,453.74 C330.13,453.74 340.31,454.65 350.25,453.54 C367.76,451.54 374.33,444.97 378.44,427.85 C381.52,415.05 376.62,408.19 363.55,407.66 C354.72,407.3 345.85,407.33 337.03,407.66 C335.29,407.73 332.7,409.88 332.12,411.61 C328.25,423.21 324.79,434.9 321.25,446.56 C320.54,448.92 320.1,451.36 319.54,453.74 L319.54,453.74 Z M444.4,471 L415.73,480.2 L439.07,489.26 L444.4,471 Z" id="Shape" fill="#000000"></path>
                            <path d="M175.57,593.56 C176.46,590.56 177.36,587.49 178.33,584.48 C182.28,572.19 179.18,574.67 192.19,573.61 C221.03,571.26 249.86,568.82 278.71,566.53 C283.1,566.18 287.55,566.53 291.97,566.46 C315.8,565.97 339.66,564.32 363.44,565.13 C429.5,567.37 494.97,574.51 557.79,596.59 C575.23,602.72 591.72,611.59 608.59,619.25 C611.597834,620.657742 614.186397,622.825792 616.1,625.54 C606.95,627.06 597.84,628.97 588.64,630.04 C560.76,633.27 532.94,632.78 505.52,626.31 C476.82,619.54 452.93,605.84 439.43,577.18 C429.063652,591.675806 415.064793,603.188048 398.84,610.56 C377.107059,620.611877 353.529722,626.059348 329.59,626.56 C275.75,627.86 221.87,627.67 168,628.07 C167.196384,627.970942 166.40323,627.800263 165.63,627.56 C168.96,616.16 172.26,604.85 175.57,593.56 Z" id="Shape" fill="#C90814"></path>
                            <path d="M610.93,540.36 C615.67,530.53 620.24,520.82 625.08,511.26 C625.941567,509.745982 627.441021,508.702243 629.16,508.42 C661.67,508.26 694.16,508.3 726.73,508.3 C726.06,518.77 709.78,553.64 700.25,565.4 C685.4,560.76 670.63,555.76 655.64,551.55 C640.83,547.39 625.78,544.04 610.93,540.36 L610.93,540.36 Z" id="Shape" fill="#000000"></path>
                            <g id="Group" transform="translate(0.250000, 0.560000)"></g>
                            <path d="M319.54,453.74 C320.1,451.36 320.54,448.93 321.26,446.57 C324.79,434.9 328.26,423.21 332.12,411.65 C332.7,409.92 335.29,407.78 337.03,407.7 C345.86,407.32 354.72,407.3 363.55,407.7 C376.62,408.23 381.55,415.09 378.44,427.89 C374.33,444.97 367.76,451.56 350.25,453.56 C340.3,454.65 330.13,453.74 319.54,453.74 L319.54,453.74 Z" id="Shape" fill="#FFFFFF"></path>
                            <polygon id="Shape" fill="#FFFFFF" points="444.4 471 439.07 489.26 415.73 480.2"></polygon>
                        </g>
                    </g>
                    <g id="Group-2-Copy-2" transform="translate(556.163209, 577.701862) rotate(-1.000000) translate(-556.163209, -577.701862) translate(394.163209, 542.701862)" stroke="#000000" fill="#000000">
                        <path d="M120.599635,7.89848225 C100.312159,5.11083737 80.5284646,3.20964866 62.7297217,1.97807865 L55.9170544,6.92299755 C72.9324225,8.91170905 92.1558702,11.349036 111.052259,14.245978 L120.599635,7.89848225 Z M41.6309289,0.772037234 L35.4507305,4.60887371 C10.3894632,1.85496032 -5.19281597,0.402160382 1.59085524,0.195994958 C10.8859715,-0.087354599 24.843436,0.0205335681 41.6309289,0.772037234 Z M188.979069,31.0836535 L199.390117,23.7230645 C191.089793,21.3676784 182.751115,19.227695 174.497545,17.4055778 C162.762004,14.8037459 150.808307,12.5608308 138.915065,10.6351613 L130.303411,17.3813688 C146.441285,20.1812559 161.708452,23.3329535 174.401524,26.8425048 C179.42132,28.223544 184.281718,29.6420279 188.979069,31.0836535 Z M323.140187,69.7476767 C323.140187,69.7476767 277.196946,48.5076967 224.967139,31.5885231 L210.054309,38.0215533 C253.526013,53.0943524 278.627452,68.196154 278.627452,68.196154 L323.140187,69.7476767 Z" id="Combined-Shape"></path>
                    </g>
                </g>
            </g>
        </g>
    </g>
</svg>