<svg id="Layer_1" data-name="Layer 1" xmlns="http://www.w3.org/2000/svg" viewBox="0 0 1184.07 261.04"><defs><style>.cls-1{fill:#c90814;}.cls-2{fill:#fff;}.cls-3{stroke:#979797;}.cls-4{fill:none;stroke:#000;stroke-miterlimit:10;stroke-width:5px;}.cls-5{font-size:64px;font-family:Termina-Bold, Termina;font-weight:700;}.cls-6{letter-spacing:-0.03em;}.cls-7{letter-spacing:-0.02em;}.cls-8{letter-spacing:-0.02em;}.cls-9{letter-spacing:-0.01em;}.cls-10{letter-spacing:-0.03em;}</style></defs><title>logo</title><g id="Page-1"><g id="Artboard-1"><g id="bartes-svg-copy"><g id="Layer_1-2" data-name="Layer 1"><path id="Shape" d="M640.93,42.39,626.27,93.6H579.79c-7.29,0-7.28,0-9.35,7L526.75,248.86c-.53,1.8-1.19,3.56-1.43,4.3L461,215,496.69,93.9H473.33a89.47,89.47,0,0,1-3.48,37.17H395.28c.75-5.18,1.55-10.12,2.05-15.1a40.16,40.16,0,0,0-.12-8c-.87-8.54-5.72-13.78-14.19-15.39-16.15-3.07-29.59,1.91-40.39,14.07-11.16,12.57-17.18,27.85-21.9,43.61-2.92,9.76-4.75,19.83-7.28,30.63a703.74,703.74,0,0,0-131.53,2.85c-1.77-11.85-5.39-15-17.18-15.29-6.31-.13-12.63.08-18.94-.1-2.7-.08-3.9.84-4.59,3.46a130.15,130.15,0,0,1-4.71,14.85c-.65,1.65-2.63,3.62-4.27,3.91-25.18,4.33-50.4,8.39-76.2,12.61.28-1.41.42-2.71.75-4Q79.41,122.88,102,46.54c.9-3,2.12-4.21,5.49-4.19,30.3.16,60.62-.35,90.91.29a219.72,219.72,0,0,1,39.84,4.51C257.2,51.09,273,59.89,278,81.62c22.26-26,51-37.92,83.67-40.85,32-2.87,63.5-1.58,92,18,1.25-4.16,2.66-8.07,3.54-12.1.75-3.37,2.24-4.48,5.79-4.42,19.1.19,38.2.09,57.29.09H640.93ZM155.55,124.23c7.91,0,15.52.68,22.94-.15,13.08-1.49,18-6.4,21.06-19.19,2.3-9.56-1.36-14.69-11.12-15.08-6.6-.27-13.22-.25-19.81,0a5.18,5.18,0,0,0-3.67,3c-2.89,8.67-5.48,17.4-8.12,26.11-.53,1.76-.86,3.59-1.28,5.36Zm93.28,12.89L227.41,144l17.44,6.77Z" transform="translate(-40.57 -17.43)"/><path id="Shape-2" data-name="Shape" class="cls-1" d="M48,228.69c.66-2.24,1.34-4.53,2.06-6.78,3-9.18.64-7.33,10.35-8.12C82,212,103.49,210.21,125,208.5c3.28-.26,6.6,0,9.91-.05,17.8-.37,35.63-1.6,53.39-1,49.35,1.67,98.26,7,145.19,23.5,13,4.58,25.35,11.21,38,16.93a14.26,14.26,0,0,1,5.61,4.7c-6.84,1.14-13.64,2.56-20.51,3.36-20.83,2.41-41.61,2-62.1-2.79-21.44-5.06-39.29-15.29-49.37-36.7a75.86,75.86,0,0,1-30.32,24.94,129.7,129.7,0,0,1-51.74,12c-40.22,1-80.48.83-120.72,1.13a10.15,10.15,0,0,1-1.77-.38Q44.3,241.31,48,228.69Z" transform="translate(-40.57 -17.43)"/><path id="Shape-3" data-name="Shape" d="M373.24,188.94c3.54-7.34,7-14.6,10.57-21.74a4.31,4.31,0,0,1,3-2.12c24.29-.12,48.56-.09,72.89-.09-.5,7.82-12.66,33.87-19.78,42.66-11.09-3.47-22.13-7.2-33.33-10.35s-22.31-5.61-33.4-8.36Z" transform="translate(-40.57 -17.43)"/><path id="Shape-4" data-name="Shape" class="cls-2" d="M155.55,124.23c.42-1.78.75-3.59,1.28-5.36,2.64-8.72,5.23-17.45,8.11-26.09a5.19,5.19,0,0,1,3.67-3c6.6-.28,13.22-.3,19.81,0,9.76.4,13.45,5.52,11.12,15.08-3.07,12.76-8,17.68-21.06,19.18-7.43.81-15,.13-22.94.13Z" transform="translate(-40.57 -17.43)"/><polygon id="Shape-5" data-name="Shape" class="cls-2" points="208.26 119.7 204.28 133.34 186.84 126.58 208.26 119.7"/></g><g id="Group-2-Copy-2"><path id="Combined-Shape" class="cls-3" d="M301,197.14c-15.19-1.82-30-3-43.3-3.67l-5,3.78c12.74,1.26,27.13,2.83,41.28,4.75ZM242,192.84l-4.57,2.95c-18.76-1.73-30.41-2.61-25.35-2.85C219,192.6,229.42,192.5,242,192.84Zm110.46,20.72,7.68-5.63c-6.23-1.65-12.49-3.14-18.68-4.39-8.8-1.79-17.76-3.31-26.67-4.59l-6.34,5.15c12.09,1.88,23.54,4,33.06,6.49Q347.13,212,352.43,213.56ZM453.15,240.7a743.48,743.48,0,0,0-73.83-27.22l-11.06,5c32.67,10.69,51.61,21.65,51.61,21.65Z" transform="translate(-40.57 -17.43)"/></g></g></g></g><line class="cls-4" x1="632.27" x2="632.27" y2="261.04"/><text class="cls-5" transform="translate(659.85 81.69)"><tspan class="cls-6">B</tspan><tspan x="58.56" y="0">A</tspan><tspan class="cls-7" x="118.59" y="0">R</tspan><tspan x="177.66" y="0">TES</tspan><tspan x="0" y="67">CHEMI</tspan><tspan class="cls-8" x="272.7" y="67">C</tspan><tspan x="328.77" y="67">A</tspan><tspan class="cls-6" x="388.8" y="67">L</tspan><tspan x="0" y="134">T</tspan><tspan class="cls-9" x="52.16" y="134">R</tspan><tspan x="111.62" y="134">ANSPO</tspan><tspan class="cls-7" x="413.95" y="134">R</tspan><tspan class="cls-10" x="473.02" y="134">T</tspan></text></svg>