<?xml version="1.0" encoding="UTF-8"?>
<svg width="1185px" height="262px" viewBox="0 0 1185 262" version="1.1" xmlns="http://www.w3.org/2000/svg" xmlns:xlink="http://www.w3.org/1999/xlink">
    <!-- Generator: Sketch 3.8.1 (29687) - http://www.bohemiancoding.com/sketch -->
    <title>logo</title>
    <desc>Created with Sketch.</desc>
    <defs></defs>
    <g id="Page-1" stroke="none" stroke-width="1" fill="none" fill-rule="evenodd">
        <g id="logo">
            <g>
                <g id="Page-1" transform="translate(0.000000, 22.000000)">
                    <g id="Artboard-1">
                        <g id="bartes-svg-copy">
                            <g id="Layer_1-2">
                                <path d="M600.36,2.96 L585.7,54.17 L539.22,54.17 C531.93,54.17 531.94,54.17 529.87,61.17 L486.18,209.43 C485.65,211.23 484.99,212.99 484.75,213.73 L420.43,175.57 L456.12,54.47 L432.76,54.47 C434.22661,66.9668631 433.040799,79.6325472 429.28,91.64 L354.71,91.64 C355.46,86.46 356.26,81.52 356.76,76.54 C356.986396,73.8759871 356.946197,71.1960241 356.64,68.54 C355.77,60 350.92,54.76 342.45,53.15 C326.3,50.08 312.86,55.06 302.06,67.22 C290.9,79.79 284.88,95.07 280.16,110.83 C277.24,120.59 275.41,130.66 272.88,141.46 C229.04386,138.300773 185.008153,139.254941 141.35,144.31 C139.58,132.46 135.96,129.31 124.17,129.02 C117.86,128.89 111.54,129.1 105.23,128.92 C102.53,128.84 101.33,129.76 100.64,132.38 C99.3679334,137.419609 97.7951165,142.37849 95.93,147.23 C95.28,148.88 93.3,150.85 91.66,151.14 C66.48,155.47 41.26,159.53 15.46,163.75 C15.74,162.34 15.88,161.04 16.21,159.75 C31.2966667,108.883333 46.37,58.0033333 61.43,7.11 C62.33,4.11 63.55,2.9 66.92,2.92 C97.22,3.08 127.54,2.57 157.83,3.21 C171.219697,3.49599348 184.555204,5.00561041 197.67,7.72 C216.63,11.66 232.43,20.46 237.43,42.19 C259.69,16.19 288.43,4.27 321.1,1.34 C353.1,-1.53 384.6,-0.24 413.1,19.34 C414.35,15.18 415.76,11.27 416.64,7.24 C417.39,3.87 418.88,2.76 422.43,2.82 C441.53,3.01 460.63,2.91 479.72,2.91 L600.36,2.91 L600.36,2.96 Z M114.98,84.8 C122.89,84.8 130.5,85.48 137.92,84.65 C151,83.16 155.92,78.25 158.98,65.46 C161.28,55.9 157.62,50.77 147.86,50.38 C141.26,50.11 134.64,50.13 128.05,50.38 C126.414043,50.7287862 125.047198,51.846098 124.38,53.38 C121.49,62.05 118.9,70.78 116.26,79.49 C115.73,81.25 115.4,83.08 114.98,84.85 L114.98,84.8 Z M208.26,97.69 L186.84,104.57 L204.28,111.34 L208.26,97.69 Z" id="Shape" fill="#000000"></path>
                                <path d="M7.43,189.26 C8.09,187.02 8.77,184.73 9.49,182.48 C12.49,173.3 10.13,175.15 19.84,174.36 C41.43,172.57 62.92,170.78 84.43,169.07 C87.71,168.81 91.03,169.07 94.34,169.02 C112.14,168.65 129.97,167.42 147.73,168.02 C197.08,169.69 245.99,175.02 292.92,191.52 C305.92,196.1 318.27,202.73 330.92,208.45 C333.167031,209.501951 335.100716,211.121972 336.53,213.15 C329.69,214.29 322.89,215.71 316.02,216.51 C295.19,218.92 274.41,218.51 253.92,213.72 C232.48,208.66 214.63,198.43 204.55,177.02 C196.806875,187.849844 186.350022,196.451227 174.23,201.96 C157.995777,209.486317 140.379798,213.571971 122.49,213.96 C82.27,214.96 42.01,214.79 1.77,215.09 C1.1698592,215.016307 0.577503722,214.889134 -8.52651283e-14,214.71 C2.48666667,206.156667 4.96333333,197.673333 7.43,189.26 L7.43,189.26 Z" id="Shape-2" fill="#C90814"></path>
                                <path d="M332.67,149.51 C336.21,142.17 339.67,134.91 343.24,127.77 C343.873711,126.651219 344.973835,125.873798 346.24,125.65 C370.53,125.53 394.8,125.56 419.13,125.56 C418.63,133.38 406.47,159.43 399.35,168.22 C388.26,164.75 377.22,161.02 366.02,157.87 C354.82,154.72 343.71,152.26 332.62,149.51 L332.67,149.51 Z" id="Shape-3" fill="#000000"></path>
                                <path d="M114.98,84.8 C115.4,83.02 115.73,81.21 116.26,79.44 C118.9,70.72 121.49,61.99 124.37,53.35 C125.038558,51.8171277 126.404781,50.7003235 128.04,50.35 C134.64,50.07 141.26,50.05 147.85,50.35 C157.61,50.75 161.3,55.87 158.97,65.43 C155.9,78.19 150.97,83.11 137.91,84.61 C130.48,85.42 122.91,84.74 114.97,84.74 L114.98,84.8 Z" id="Shape-4" fill="#FFFFFF"></path>
                                <polygon id="Shape-5" fill="#FFFFFF" points="208.26 97.7 204.28 111.34 186.84 104.58"></polygon>
                            </g>
                            <g id="Group-2-Copy-2" transform="translate(170.000000, 153.000000)" stroke="#979797" fill="#000000">
                                <path d="M90.43,4.71 C75.24,2.89 60.43,1.71 47.13,1.04 L42.13,4.82 C54.87,6.08 69.26,7.65 83.41,9.57 L90.43,4.71 Z M31.43,0.41 L26.86,3.36 C8.1,1.63 -3.55,0.75 1.51,0.51 C8.43,0.17 18.85,0.07 31.43,0.41 L31.43,0.41 Z M141.89,21.13 L149.57,15.5 C143.34,13.85 137.08,12.36 130.89,11.11 C122.09,9.32 113.13,7.8 104.22,6.52 L97.88,11.67 C109.97,13.55 121.42,15.67 130.94,18.16 C134.686667,19.1 138.326667,20.09 141.86,21.13 L141.89,21.13 Z M242.58,48.27 C218.467739,37.8997858 193.823232,28.8137302 168.75,21.05 L157.69,26.05 C190.36,36.74 209.3,47.7 209.3,47.7 L242.58,48.27 Z" id="Combined-Shape"></path>
                            </g>
                        </g>
                    </g>
                </g>
                <path d="M632.27,0 L632.27,261.04" id="Shape" stroke="#000000" stroke-width="5"></path>
                <g id="Group" transform="translate(659.850000, 20.690000)" font-size="64" font-family="Termina-Black, Termina" fill="#000000" font-weight="700">
                    <text id="B">
                        <tspan x="0" y="61">B</tspan>
                    </text>
                    <text id="A">
                        <tspan x="58.56" y="61">A</tspan>
                    </text>
                    <text id="R">
                        <tspan x="118.59" y="61">R</tspan>
                    </text>
                    <text id="TES">
                        <tspan x="177.66" y="61">TES</tspan>
                    </text>
                    <text id="CHEMI">
                        <tspan x="0" y="128">CHEMI</tspan>
                    </text>
                    <text id="C">
                        <tspan x="272.7" y="128">C</tspan>
                    </text>
                    <text id="A">
                        <tspan x="328.77" y="128">A</tspan>
                    </text>
                    <text id="L">
                        <tspan x="388.8" y="128">L</tspan>
                    </text>
                    <text id="T">
                        <tspan x="0" y="195">T</tspan>
                    </text>
                    <text id="R">
                        <tspan x="52.16" y="195">R</tspan>
                    </text>
                    <text id="ANSPO">
                        <tspan x="111.62" y="195">ANSPO</tspan>
                    </text>
                    <text id="R">
                        <tspan x="413.95" y="195">R</tspan>
                    </text>
                    <text id="T">
                        <tspan x="473.02" y="195">T</tspan>
                    </text>
                </g>
            </g>
        </g>
    </g>
</svg>