<?xml version="1.0" encoding="UTF-8"?>
<svg width="767px" height="296px" viewBox="0 0 767 296" version="1.1" xmlns="http://www.w3.org/2000/svg" xmlns:xlink="http://www.w3.org/1999/xlink">
    <!-- Generator: Sketch 3.8.1 (29687) - http://www.bohemiancoding.com/sketch -->
    <title>tct</title>
    <desc>Created with Sketch.</desc>
    <defs></defs>
    <g id="Page-1" stroke="none" stroke-width="1" fill="none" fill-rule="evenodd">
        <g id="Artboard-2" transform="translate(-63.000000, -47.000000)">
            <g id="tct" transform="translate(63.000000, 47.000000)">
                <g id="Group">
                    <g>
                        <path d="M286.288762,192.000433 C286.338132,179.364695 289.949812,164.233048 294.39152,148.2114 C306.17376,105.71178 322.77524,69.92196 371.09424,69.92196 C403.98492,69.92196 415.04554,83.78888 408.65224,125.39386 L507.34538,125.39386 C512.425333,107.068919 514.437085,89.4445445 512.374199,73.50474 L572.61612,73.50474 L529.155968,230.284407 C559.474325,241.125423 588.579102,254.621821 615.476564,271.203049 L670.27958,73.50474 L747.89382,73.50474 L766.88382,5.06056 L513.99188,5.06056 L502.943006,44.8831569 C487.296538,18.0260769 452.490178,0.58314 390.31212,0.58314 C333.559556,0.58314 292.927947,14.9538106 263.495969,37.0805835 L272.38,5.06056 L19.5176,5.06056 L0.5276,73.50474 L78.14606,73.50474 L37.2401891,221.059693 C57.7196398,216.188573 93.9922304,208.427415 140.133962,202.150809 L175.8053,73.50474 L228.358831,73.50474 C212.073888,96.5347482 201.752608,122.658408 194.6687,148.2114 C190.149761,164.512064 186.792827,181.044953 185.851244,196.858844 C216.867997,193.901001 250.773429,191.966759 286.288762,192.000433 L286.288762,192.000433 Z M382.473767,197.338089 C387.198328,189.959275 391.702008,180.972856 396.2581,170.1343 L494.9428,170.1343 C490.614382,185.747186 484.608672,200.630596 476.637366,214.337311 C445.565834,206.44423 413.856227,200.916866 382.473767,197.338089 L382.473767,197.338089 Z" id="Combined-Shape" fill="#191919"></path>
                        <path d="M132.127733,231.024691 L115.396,291.36646 L17.74942,291.36646 L32.4162013,238.460699 C68.2899756,234.394041 101.484493,232.031827 132.127738,231.024713 L132.127733,231.024691 Z" id="Path" fill="#C90814"></path>
                        <path d="M414.950812,273.211396 C387.476471,287.506842 352.489186,295.83966 308.461,295.83966 C229.520574,295.83966 197.193857,268.253798 188.301379,230.674097 C306.035251,233.236488 378.201982,256.650079 414.950812,273.211396 L414.950812,273.211396 Z" id="Path" fill="#C90814"></path>
                        <g id="Group-2" transform="translate(352.701896, 242.470648) rotate(-1.000000) translate(-352.701896, -242.470648) translate(175.701896, 207.470648)" stroke="#979797" fill="#000000">
                            <path d="M69.8011537,7.4713595 C87.4959041,8.60753922 106.968726,10.092736 126.146433,12.0960653 L136.39039,2.9319275 C115.660103,1.1570521 95.427327,0.306818947 76.926943,0.0754040074 L69.8011537,7.4713595 Z M45.9435767,6.06671736 C14.7928227,4.37780013 -5.22929175,3.76896396 2.60944191,2.87531808 C13.783905,1.60138618 31.3057543,0.469518158 52.5915417,0.119516775 L45.9435767,6.06671736 Z M148.531614,14.7132043 C166.464191,17.0601843 183.366496,19.9492591 197.387797,23.5313976 C204.7591,25.4146056 211.794965,27.4112682 218.484906,29.4770391 L230.354476,18.8586454 C219.2991,15.7678422 208.075412,13.0663274 196.949417,10.9777736 C184.073717,8.56076799 170.923017,6.62384328 157.801745,5.09160677 L148.531614,14.7132043 Z M240.768138,37.0290182 C283.962489,53.0137019 307.663521,69.9025387 307.663521,69.9025387 L353.841915,68.2899534 C353.841915,68.2899534 310.785922,45.3494824 257.899286,27.4064895 L240.768138,37.0290182 Z" id="Combined-Shape"></path>
                        </g>
                    </g>
                </g>
            </g>
        </g>
    </g>
</svg>